<?xml version="1.0" encoding="UTF-8" standalone="no"?><!DOCTYPE svg PUBLIC "-//W3C//DTD SVG 1.1//EN" "http://www.w3.org/Graphics/SVG/1.1/DTD/svg11.dtd"><svg width="100%" height="100%" viewBox="0 0 172 93" version="1.1" xmlns="http://www.w3.org/2000/svg" xmlns:xlink="http://www.w3.org/1999/xlink" xml:space="preserve" xmlns:serif="http://www.serif.com/" style="fill-rule:evenodd;clip-rule:evenodd;stroke-linejoin:round;stroke-miterlimit:2;"><rect id="Page-11" serif:id="Page 11" x="0" y="0" width="171.746" height="92.497" style="fill:none;"/><clipPath id="_clip1"><rect x="0" y="0" width="171.746" height="92.497"/></clipPath><g clip-path="url(#_clip1)"><g id="Layer-1" serif:id="Layer 1"><path d="M19.19,27.162c2.997,-0 6.752,-0.518 9.367,-1.442c0.763,-0.26 1.331,-0.851 1.475,-1.477l0.856,-4.176c0.093,-0.332 -0.237,-0.593 -0.619,-0.629c-0.332,-0 -0.619,0.186 -0.665,0.407c-1.238,4.065 -3.992,6.319 -9.604,6.319c-9.228,-0 -15.074,-5.47 -15.074,-13.044c0,-6.579 4.851,-12.047 14.122,-12.047c5.468,-0 9.558,1.664 10.651,6.022c0.049,0.222 0.287,0.371 0.617,0.371c0.335,-0 0.619,-0.221 0.572,-0.518l-0.474,-3.879c-0.049,-0.629 -0.573,-1.147 -1.334,-1.367c-3.138,-0.962 -6.702,-1.702 -10.032,-1.702c-9.89,-0 -16.977,5.359 -16.977,13.23c0,7.982 6.277,13.932 17.119,13.932" style="fill:#1d1d1e;fill-rule:nonzero;"/><path d="M33.55,1.811c2.522,0.297 2.331,1.813 2.331,3.291l-0,12.895c0.047,3.917 0.759,9.165 8.083,9.165c7.133,-0 7.799,-5.359 7.799,-8.722l-0,-13.449c-0,-1.22 -0.238,-2.883 1.949,-3.18c0.429,-0.036 0.666,-0.258 0.666,-0.552c-0,-0.371 -0.382,-0.665 -1.001,-0.629l-4.944,-0c-0.57,-0.036 -0.998,0.258 -0.998,0.629c-0,0.333 0.284,0.552 0.761,0.627c2.236,0.258 2.045,1.699 2.045,3.252l-0,13.266c-0,2.179 -0.191,7.5 -5.374,7.5c-6.371,-0 -6.324,-5.543 -6.324,-8.867l-0,-11.935c-0,-1.442 -0.237,-2.958 2.331,-3.291c0.428,-0.036 0.759,-0.258 0.759,-0.591c-0,-0.368 -0.429,-0.626 -0.996,-0.626c-1.145,0.036 -2.427,0.072 -3.378,0.072c-1.187,-0 -2.187,-0 -3.425,-0.072c-0.617,-0 -0.996,0.258 -0.996,0.626c-0,0.333 0.284,0.555 0.712,0.591" style="fill:#1d1d1e;fill-rule:nonzero;"/><path d="M61.986,2.404c-0,-0.407 0.191,-0.74 0.949,-0.812c0.382,-0.039 1.047,-0.075 1.475,-0.075c5.04,-0 6.04,3.585 6.04,6.171c-0,2.587 -1.57,5.911 -5.47,5.911c-1.472,-0 -2.994,-0.515 -2.994,-1.699l-0,-9.496Zm-5.042,22.984c-0.474,0.036 -0.761,0.294 -0.761,0.59c-0,0.333 0.428,0.63 1.047,0.591c1.187,-0.072 2.569,-0.036 3.376,-0.036c1.331,-0 2.329,-0 3.521,0.036c0.567,-0 0.995,-0.294 0.949,-0.627c-0,-0.296 -0.284,-0.518 -0.712,-0.59c-2.522,-0.261 -2.378,-1.775 -2.378,-3.291l-0,-7.242c-0,-0.222 0.284,-0.407 0.619,-0.369c0.758,0.073 1.424,0.111 2.187,0.111c0.284,-0.038 0.567,0.072 0.665,0.258l7.51,11.417c0.145,0.222 0.526,0.372 0.905,0.333c0.617,-0.036 1.38,-0.036 1.95,-0.036c0.524,-0 1.094,-0 1.664,0.036c0.474,-0 0.856,-0.258 0.856,-0.591c-0,-0.296 -0.284,-0.518 -0.81,-0.554c-1.282,-0.072 -2.233,-0.369 -2.803,-1.22l-6.61,-9.718c-0.145,-0.221 -0,-0.443 0.283,-0.554c3.758,-1.145 4.901,-3.954 4.901,-6.576c-0,-2.884 -2.236,-6.762 -8.323,-6.762c-1.426,-0 -2.994,0.072 -4.088,0.072c-1.807,-0 -2.094,-0 -3.708,-0.036c-0.526,-0 -0.905,0.221 -0.954,0.554c-0.047,0.297 0.24,0.591 0.763,0.627c2.471,0.222 2.329,1.552 2.329,3.141l-0,17.073c-0,1.514 0.142,3.066 -2.378,3.363" style="fill:#1d1d1e;fill-rule:nonzero;"/><path d="M86.47,16.443l3.853,-12.157l3.709,12.157c0.046,0.186 -0.096,0.333 -0.382,0.333l-6.798,0c-0.333,0 -0.428,-0.147 -0.382,-0.333m-5.942,10.089c0.761,-0.036 1.475,-0.036 2.615,-0.036c0.712,0 2.187,0 2.806,0.036c0.57,0 0.949,-0.258 0.949,-0.629c0,-0.294 -0.284,-0.516 -0.758,-0.591c-0.856,-0.072 -1.475,-0.333 -1.666,-0.776c-0.284,-0.591 -0.047,-1.625 0.284,-2.623l1.191,-3.807c0.046,-0.221 0.237,-0.332 0.57,-0.332l7.417,0c0.333,0 0.524,0.149 0.57,0.332l1.143,3.732c0.188,0.666 0.76,2.254 0.428,2.884c-0.24,0.443 -0.952,0.59 -1.617,0.629c-0.475,0.036 -0.712,0.294 -0.712,0.59c0,0.333 0.33,0.591 0.902,0.591l6.371,0c0.572,0 1,-0.258 1,-0.591c0.047,-0.296 -0.144,-0.554 -0.619,-0.665c-2.282,-0.48 -2.661,-1.589 -3.043,-2.919l-6.705,-21.839c-0.093,-0.297 -0.475,-0.518 -0.903,-0.518c-0.474,0 -0.81,0.221 -0.903,0.518l-6.751,21.248c-0.382,1.181 -0.764,3.103 -2.904,3.435c-0.475,0.111 -0.712,0.369 -0.712,0.666c0.046,0.368 0.428,0.665 1.047,0.665" style="fill:#1d1d1e;fill-rule:nonzero;"/><path d="M101.258,5.581c0.335,-0 0.526,-0.147 0.573,-0.333c0.283,-1.588 0.521,-3.621 3.945,-3.621l1.476,-0c0.711,-0 1.186,0.369 1.186,0.813l0,19.584c0,1.478 0.098,3.067 -2.424,3.327c-0.475,0.073 -0.712,0.331 -0.712,0.627c0,0.369 0.428,0.629 1.047,0.591c0.805,-0.036 2.089,-0.036 3.518,-0.036c1.093,-0 2.377,-0 3.326,0.036c0.524,-0 1.001,-0.222 1.001,-0.627c0,-0.26 -0.286,-0.518 -0.763,-0.554c-2.471,-0.297 -2.329,-1.85 -2.329,-3.364l0,-19.584c0,-0.444 0.379,-0.813 1.093,-0.813l1.95,-0c3.234,-0 3.139,2.144 3.139,3.621c0,0.186 0.191,0.333 0.57,0.333c0.24,-0 0.523,-0.111 0.523,-0.333l0.237,-4.211c0,-0.297 -0.283,-0.518 -0.76,-0.518c-3.044,0.147 -4.851,0.147 -7.941,0.147c-3.09,-0 -5.086,-0 -8.129,-0.147c-0.428,-0 -0.763,0.185 -0.763,0.479l-0.33,4.176c0,0.221 0.188,0.407 0.567,0.407" style="fill:#1d1d1e;fill-rule:nonzero;"/><path d="M123.561,22.246c-0,1.553 -0.098,2.919 -2.189,3.177c-0.429,0.036 -0.715,0.297 -0.715,0.591c-0,0.333 0.382,0.593 0.856,0.593c2.425,-0.039 4.947,-0.075 7.371,-0.075c2.473,0 3.281,0.036 5.803,0.075c0.521,0 0.949,-0.222 0.998,-0.554c0.286,-1.146 0.902,-3.696 1.235,-4.841c0.047,-0.261 -0.191,-0.518 -0.619,-0.518c-0.379,0 -0.616,0.185 -0.665,0.368c-0.666,2.293 -1.094,4.508 -5.468,4.508c-3.043,0 -3.945,-0.701 -3.945,-3.657l-0,-7.76c-0,-0.332 0.283,-0.59 0.807,-0.59l3.613,0c2.473,0 2.331,1.921 2.285,3.141c-0,0.222 0.237,0.405 0.616,0.405c0.379,0 0.619,-0.183 0.619,-0.369l-0,-6.948c-0,-0.183 -0.191,-0.369 -0.619,-0.369c-0.379,0 -0.616,0.186 -0.616,0.369c-0,1.148 -0,2.809 -2.236,2.809l-3.662,0c-0.524,0 -0.807,-0.258 -0.807,-0.591l-0,-9.534c-0,-0.444 0.381,-0.738 1.047,-0.738l2.803,0c4.327,0 4.186,2.032 4.376,4.25c0.047,0.183 0.238,0.405 0.617,0.405c0.379,0 0.619,-0.222 0.619,-0.405l-0,-4.879c-0,-0.294 -0.286,-0.516 -0.761,-0.516c-2.233,0.036 -4.66,0.072 -7.038,0.072c-2.282,0 -4.232,0 -6.373,-0.072c-0.474,0 -0.856,0.258 -0.856,0.627c-0,0.296 0.286,0.554 0.764,0.59c2.279,0.186 2.14,1.664 2.14,3.105l-0,17.331Z" style="fill:#1d1d1e;fill-rule:nonzero;"/><path d="M144.574,3.03c0,-0.738 0.763,-1.145 1.62,-1.181c1.235,-0.111 3.136,-0.147 4.374,-0.147c9.366,0 16.214,4.286 16.214,11.786c0,7.871 -5.849,12.193 -16.359,12.193c-4.038,0 -5.849,-0.516 -5.849,-3.804l0,-18.847Zm-4.993,22.393c-0.379,0.036 -0.712,0.297 -0.712,0.629c0,0.369 0.382,0.627 0.81,0.627c1.664,-0.036 3.327,-0.072 4.944,-0.072c1.854,0 4.851,0.036 6.037,0.036c10.559,0 19.023,-4.433 19.023,-13.08c0,-8.093 -8.322,-12.859 -18.308,-12.859c-1.947,0 -5.609,0.036 -7.038,0.036c-1.713,0 -3.185,0 -4.707,-0.036c-0.428,-0.039 -0.761,0.258 -0.761,0.59c0,0.297 0.284,0.555 0.666,0.555c2.236,0.183 2.424,1.367 2.424,3.102l0,17.331c0,1.921 -0.33,2.958 -2.378,3.141" style="fill:#1d1d1e;fill-rule:nonzero;"/><path d="M14.502,29.488c-2.233,0.036 -4.611,0.072 -6.989,0.072c-2.378,-0 -4.42,-0.036 -6.561,-0.072c-0.572,-0 -0.952,0.258 -0.952,0.591c-0,0.296 0.333,0.554 0.808,0.59c2.475,0.186 2.377,1.664 2.377,3.141l-0,17.109c-0,1.478 0.049,3.105 -2.377,3.327c-0.521,0.072 -0.759,0.33 -0.759,0.627c-0,0.333 0.38,0.629 0.996,0.59c1.096,-0.036 2.378,-0.036 3.471,-0.036c1.047,-0 2.378,-0.036 3.471,0.036c0.573,-0 0.955,-0.257 0.955,-0.626c-0,-0.297 -0.289,-0.519 -0.764,-0.591c-2.424,-0.222 -2.328,-1.885 -2.328,-3.327l-0,-7.871c-0,-0.332 0.237,-0.59 0.76,-0.59l3.613,-0c2.474,-0 2.329,1.921 2.329,3.141c-0,0.222 0.24,0.405 0.619,0.405c0.336,-0 0.573,-0.183 0.573,-0.405l-0,-6.873c-0,-0.222 -0.237,-0.408 -0.573,-0.408c-0.379,-0 -0.619,0.186 -0.619,0.408c-0.046,1.109 -0.046,2.77 -2.28,2.77l-3.662,-0c-0.523,-0 -0.76,-0.258 -0.76,-0.591l-0,-9.534c-0,-0.405 0.332,-0.774 0.998,-0.774l2.805,-0c4.233,-0 4.184,2.068 4.374,4.286c0.047,0.222 0.336,0.369 0.666,0.369c0.335,-0 0.619,-0.147 0.619,-0.407l-0,-4.877c-0,-0.258 -0.333,-0.519 -0.81,-0.48" style="fill:#1d1d1e;fill-rule:nonzero;"/><path d="M32.998,54.948c0.237,-1.145 0.905,-3.66 1.191,-4.805c0.093,-0.296 -0.144,-0.554 -0.618,-0.554c-0.336,-0 -0.573,0.186 -0.666,0.407c-0.665,2.291 -1.093,4.47 -5.516,4.47c-3.043,-0 -3.851,-0.885 -3.851,-3.472l-0,-17.036c-0,-1.439 -0,-3.031 2.329,-3.252c0.524,-0.036 0.761,-0.294 0.761,-0.591c-0,-0.333 -0.382,-0.591 -0.952,-0.591c-1.093,0.075 -2.424,0.037 -3.471,0.037c-1.045,-0 -2.375,-0 -3.469,-0.037c-0.572,-0.036 -0.954,0.258 -0.954,0.591c-0,0.297 0.237,0.555 0.763,0.591c2.378,0.221 2.329,1.813 2.329,3.252l-0,16.815c-0,1.588 -0.142,3.324 -2.427,3.546c-0.474,0.075 -0.711,0.332 -0.711,0.59c-0,0.333 0.332,0.594 0.856,0.594c2.471,-0.039 5.135,-0.075 7.608,-0.075c2.47,-0 3.28,0.036 5.754,0.075c0.569,-0 0.951,-0.222 1.044,-0.555" style="fill:#1d1d1e;fill-rule:nonzero;"/><path d="M55.347,30.78c1.426,0.147 1.996,0.812 2.424,1.738c0.237,0.48 0.475,1.107 0.715,1.883l7.608,21.395c0.049,0.15 0.286,0.297 0.569,0.297c0.333,-0 0.573,-0.147 0.619,-0.333l7.513,-21.653c0.237,-0.704 0.428,-1.295 0.616,-1.774c0.336,-0.702 0.81,-1.367 1.95,-1.553c0.428,-0.075 0.665,-0.333 0.665,-0.591c0,-0.332 -0.428,-0.59 -0.995,-0.59c-0.763,0.036 -1.759,-0 -2.187,-0c-0.763,-0 -1.666,-0 -2.427,-0.039c-0.523,-0.036 -0.998,0.222 -0.998,0.629c0,0.297 0.284,0.555 0.81,0.627c1.14,0.111 1.568,0.408 1.423,1.406c-0.046,0.407 -0.237,0.923 -0.428,1.624l-5.704,16.887c-0.096,0.261 -0.475,0.222 -0.573,-0l-5.609,-16.515c-0.237,-0.74 -0.428,-1.331 -0.524,-1.775c-0.237,-1.072 0.096,-1.477 1.429,-1.627c0.521,-0.072 0.758,-0.33 0.758,-0.627c0,-0.368 -0.428,-0.665 -0.998,-0.629l-3.231,-0c-0.764,-0 -2.094,0.039 -3.141,-0c-0.568,-0.036 -0.996,0.261 -0.996,0.593c0.047,0.333 0.284,0.552 0.712,0.627" style="fill:#1d1d1e;fill-rule:nonzero;"/><path d="M113.023,29.488c-0.616,-0 -0.995,0.258 -0.995,0.627c0,0.332 0.283,0.554 0.711,0.59c2.523,0.297 2.332,1.813 2.332,3.291l0,12.895c0.046,3.917 0.758,9.166 8.082,9.166c7.134,-0 7.799,-5.36 7.799,-8.723l0,-13.449c0,-1.22 -0.237,-2.883 1.95,-3.18c0.428,-0.036 0.665,-0.258 0.665,-0.552c0,-0.371 -0.382,-0.665 -1.001,-0.629l-4.943,-0c-0.57,-0.036 -0.998,0.258 -0.998,0.629c0,0.333 0.283,0.552 0.76,0.627c2.236,0.258 2.045,1.7 2.045,3.252l0,13.266c0,2.18 -0.19,7.5 -5.374,7.5c-6.37,-0 -6.324,-5.542 -6.324,-8.867l0,-11.935c0,-1.442 -0.237,-2.958 2.332,-3.291c0.428,-0.036 0.758,-0.258 0.758,-0.59c0,-0.369 -0.428,-0.627 -0.996,-0.627c-1.145,0.036 -2.427,0.072 -3.378,0.072c-1.186,-0 -2.187,-0 -3.425,-0.072" style="fill:#1d1d1e;fill-rule:nonzero;"/><path d="M144.17,42.494c-1.473,-0 -2.994,-0.516 -2.994,-1.7l-0,-9.495c-0,-0.408 0.191,-0.74 0.949,-0.813c0.382,-0.038 1.047,-0.074 1.475,-0.074c5.039,-0 6.04,3.584 6.04,6.171c-0,2.587 -1.571,5.911 -5.47,5.911m12.552,11.825c-1.282,-0.073 -2.234,-0.369 -2.803,-1.22l-6.61,-9.718c-0.145,-0.222 -0,-0.443 0.283,-0.554c3.758,-1.145 4.9,-3.954 4.9,-6.577c-0,-2.883 -2.236,-6.762 -8.322,-6.762c-1.426,-0 -2.994,0.072 -4.088,0.072c-1.808,-0 -2.094,-0 -3.708,-0.036c-0.526,-0 -0.905,0.222 -0.954,0.555c-0.047,0.296 0.239,0.59 0.763,0.627c2.471,0.221 2.329,1.552 2.329,3.141l-0,17.073c-0,1.513 0.142,3.066 -2.378,3.363c-0.475,0.036 -0.761,0.293 -0.761,0.59c-0,0.333 0.428,0.629 1.047,0.591c1.187,-0.073 2.569,-0.036 3.376,-0.036c1.331,-0 2.329,-0 3.52,0.036c0.568,-0 0.996,-0.294 0.949,-0.627c-0,-0.297 -0.283,-0.518 -0.711,-0.591c-2.523,-0.26 -2.378,-1.774 -2.378,-3.29l-0,-7.242c-0,-0.222 0.284,-0.408 0.619,-0.369c0.758,0.072 1.423,0.111 2.187,0.111c0.283,-0.039 0.567,0.072 0.665,0.258l7.51,11.417c0.144,0.222 0.526,0.371 0.905,0.333c0.617,-0.036 1.38,-0.036 1.95,-0.036c0.523,-0 1.093,-0 1.663,0.036c0.475,-0 0.857,-0.258 0.857,-0.591c-0,-0.297 -0.284,-0.518 -0.81,-0.554" style="fill:#1d1d1e;fill-rule:nonzero;"/><path d="M167.089,41.978c-3.471,-2.071 -6.324,-3.623 -6.324,-7.059c-0,-1.996 1.045,-4.766 4.753,-4.766c2.994,-0 3.567,2.438 3.804,3.915c0.047,0.15 0.238,0.333 0.573,0.333c0.33,-0 0.567,-0.183 0.567,-0.444l-0.474,-4.1c-0.142,-0.813 -3.234,-0.962 -3.993,-0.962c-5.898,-0 -7.133,4.583 -7.133,7.316c-0,2.329 1.284,4.436 3.853,6.172c3.848,2.661 6.654,3.549 6.654,7.463c-0,2.182 -1.331,4.916 -5.086,4.916c-3.425,-0 -4.235,-3.399 -4.66,-5.246c-0.049,-0.185 -0.24,-0.371 -0.619,-0.371c-0.428,-0 -0.665,0.222 -0.617,0.48l0.568,4.951c-0,1.109 4.09,1.481 5.042,1.481c6.037,-0 7.75,-4.805 7.75,-7.613c-0,-2.845 -1.522,-4.509 -4.658,-6.466" style="fill:#1d1d1e;fill-rule:nonzero;"/><path d="M140.983,67.29c0.186,-0.326 0.528,-0.648 1.03,-0.964c0.501,-0.317 0.774,-0.327 0.824,-0.03c0.049,0.296 -0.094,0.624 -0.426,0.98c-0.329,0.356 -0.99,0.732 -1.973,1.128c0.176,-0.415 0.359,-0.787 0.545,-1.114m-32.064,0.267c-0.083,0.367 -0.365,0.763 -0.851,1.188c-0.481,0.426 -1.029,0.831 -1.634,1.218c-0.605,0.386 -1.193,0.687 -1.757,0.905c-0.565,0.217 -0.977,0.198 -1.236,-0.059c-0.259,-0.258 -0.306,-0.629 -0.146,-1.114c0.163,-0.485 0.541,-1.034 1.139,-1.648c0.598,-0.613 1.193,-1.107 1.781,-1.484c0.591,-0.376 1.139,-0.593 1.648,-0.653c0.511,-0.059 0.833,0.109 0.969,0.505c0.14,0.396 0.167,0.777 0.087,1.142m-17.472,-13.079c0.342,-0.363 0.609,-0.629 0.769,-0.755c0.365,-0.287 0.422,-0.154 0.169,0.4c-0.069,0.155 -0.158,0.306 -0.232,0.459c-0.237,-0.033 -0.476,-0.062 -0.706,-0.104m-1.744,-0.416c-6.3,-1.947 -9.562,-7.597 -9.677,-12.345c-0.142,-5.578 3.85,-11.453 13.078,-11.564c9.604,-0.111 14.69,7.206 14.834,13.042c0.142,5.692 -3.662,11.456 -13.124,11.567l-0.287,0c-0.031,0 -0.059,-0.005 -0.091,-0.005c0.57,-0.874 1.139,-1.746 1.693,-2.608c0.694,-1.079 1.219,-1.855 1.578,-2.33c0.352,-0.475 0.525,-0.91 0.508,-1.306c-0.016,-0.397 -0.129,-0.753 -0.338,-1.069c-0.213,-0.317 -0.542,-0.614 -0.997,-0.891l-0.582,0.653c-1.066,1.287 -2.135,2.449 -3.208,3.488c-0.919,0.887 -2.076,2.041 -3.387,3.368m-49.072,12.627c-0.243,0.262 -0.506,0.293 -0.785,0.094c-0.281,-0.198 -0.384,-0.444 -0.309,-0.737c0.074,-0.293 0.285,-0.465 0.631,-0.517c0.346,-0.053 0.57,0.061 0.673,0.344c0.103,0.282 0.035,0.555 -0.21,0.816m1.971,-21.351l3.853,-12.157l3.709,12.157c0.046,0.186 -0.095,0.333 -0.382,0.333l-6.798,0c-0.333,0 -0.428,-0.147 -0.382,-0.333m105.626,24.491c-0.232,0.079 -0.558,0.237 -0.97,0.475c-0.412,0.237 -0.947,0.46 -1.611,0.668c-0.661,0.208 -1.515,0.277 -2.555,0.208c-1.043,-0.07 -1.714,-0.227 -2.013,-0.475c-0.299,-0.247 -0.418,-0.475 -0.362,-0.683c0.057,-0.208 0.455,-0.441 1.199,-0.698c0.741,-0.257 1.409,-0.678 2,-1.262c0.588,-0.583 0.91,-1.276 0.967,-2.077c0.056,-0.803 -0.1,-1.362 -0.472,-1.678c-0.372,-0.316 -0.807,-0.485 -1.309,-0.505l-0.558,0.03c-0.498,0.159 -0.987,0.455 -1.465,0.89c-0.475,0.436 -0.953,0.95 -1.428,1.544c-0.479,0.594 -0.821,1.168 -1.03,1.723c-0.165,0.43 -0.245,1.047 -0.281,1.763c-0.248,0.033 -0.516,0.128 -0.829,0.359c-0.468,0.347 -1.013,0.618 -1.634,0.817c-0.624,0.197 -1.345,0.301 -2.169,0.311c-0.824,0.01 -1.432,-0.059 -1.818,-0.208c-0.388,-0.148 -0.651,-0.47 -0.787,-0.965c-0.139,-0.495 -0.136,-0.989 0.01,-1.484c0.146,-0.495 0.336,-0.945 0.572,-1.351c0.232,-0.405 0.588,-0.786 1.066,-1.143c0.475,-0.356 0.718,-0.791 0.727,-1.306c0.007,-0.515 -0.202,-0.846 -0.631,-0.995c-0.428,-0.149 -0.877,0.01 -1.345,0.475c-0.469,0.465 -1.09,0.909 -1.861,1.329c-0.77,0.421 -1.454,1.109 -2.053,2.063c-0.39,0.623 -0.987,1.184 -1.68,1.716c-0.45,0.245 -0.889,0.473 -1.293,0.652c-0.468,0.208 -1.192,0.436 -2.169,0.683c-0.977,0.248 -1.538,0.218 -1.684,-0.09c-0.146,-0.306 -0.133,-0.618 0.036,-0.935c0.17,-0.316 0.475,-0.667 0.921,-1.054c0.445,-0.386 0.827,-0.861 1.152,-1.425c0.322,-0.564 0.515,-1.044 0.581,-1.44c0.064,-0.395 0.07,-0.756 0.024,-1.083c-0.05,-0.327 -0.18,-0.559 -0.389,-0.697c-0.209,-0.139 -0.458,-0.218 -0.75,-0.238c-0.761,0 -1.456,0.143 -2.083,0.43c-0.632,0.288 -1.515,1.178 -2.655,2.672c-1.097,1.439 -2.158,2.504 -3.187,3.237c-0.27,0.064 -0.558,0.203 -0.876,0.467c-0.388,0.321 -0.847,0.569 -1.375,0.742c-0.531,0.173 -0.977,0.201 -1.342,0.082c-0.362,-0.119 -0.584,-0.307 -0.664,-0.564c-0.08,-0.258 -0.024,-0.49 0.169,-0.698c0.193,-0.208 0.455,-0.574 0.787,-1.098c0.332,-0.525 0.489,-1.029 0.472,-1.514c-0.016,-0.485 -0.189,-0.678 -0.521,-0.579c-0.329,0.099 -0.482,-0.07 -0.459,-0.505c0.024,-0.435 -0.016,-0.827 -0.123,-1.173c-0.103,-0.346 -0.322,-0.654 -0.654,-0.92c-0.329,-0.268 -0.974,-0.421 -1.927,-0.46c-0.724,0.099 -1.296,0.257 -1.708,0.475c-0.412,0.217 -0.979,0.569 -1.707,1.054c-0.727,0.485 -1.515,1.229 -2.362,2.234c-0.848,1.001 -1.279,1.764 -1.298,2.288c-0.224,-0.629 -0.502,-0.857 -0.841,-0.633c-0.402,0.267 -0.831,0.504 -1.282,0.712c-0.456,0.208 -0.981,0.396 -1.578,0.564c-0.598,0.169 -1.236,0.288 -1.914,0.357c-0.678,0.069 -0.957,-0.223 -0.837,-0.876c0.123,-0.653 0.259,-1.197 0.412,-1.633c0.156,-0.435 0.515,-1.188 1.079,-2.257c0.565,-1.069 1.21,-2.186 1.927,-3.354c0.718,-1.168 1.415,-2.163 2.083,-2.984c0.671,-0.821 1.339,-1.544 2,-2.168c0.664,-0.623 1.292,-1.142 1.89,-1.558c0.598,-0.416 1.18,-0.811 1.748,-1.187l-0,-0.565c-0.05,-0.633 -0.256,-0.964 -0.618,-0.994c-0.366,-0.03 -0.784,0.099 -1.263,0.386c-0.475,0.287 -0.96,0.608 -1.455,0.964c-0.492,0.356 -1.099,0.861 -1.827,1.515c-0.728,0.653 -1.617,1.499 -2.667,2.538c-1.05,1.039 -1.911,1.9 -2.582,2.583c-0.671,0.683 -1.465,1.435 -2.385,2.256c-0.92,0.822 -1.983,1.782 -3.189,2.881c-1.203,1.097 -1.581,1.177 -1.136,0.237c0.442,-0.94 0.864,-1.821 1.259,-2.643c0.395,-0.821 0.787,-1.657 1.176,-2.509c0.386,-0.85 0.834,-1.81 1.346,-2.879c0.41,-0.864 0.909,-1.74 1.457,-2.624c0.111,0.002 0.219,0.014 0.33,0.014c9.7,0 16.978,-6.579 16.978,-13.71c-0,-7.058 -7.562,-13.452 -16.836,-13.452c-9.841,0 -16.974,6.579 -16.974,13.71c-0,5.676 4.736,10.826 11.389,12.697c-1.403,1.468 -2.725,2.984 -3.932,4.567c-1.365,1.791 -2.817,3.439 -4.362,4.944c-1.541,1.504 -3.013,2.662 -4.411,3.473c-1.396,0.811 -2.575,1.38 -3.538,1.707c-0.96,0.327 -1.668,0.436 -2.12,0.327c-0.452,-0.109 -0.724,-0.425 -0.81,-0.95c-0.09,-0.525 0.069,-1.099 0.481,-1.723c0.412,-0.623 0.622,-1.108 0.622,-1.454c-0,-0.346 -0.143,-0.535 -0.426,-0.564c-0.282,-0.03 -0.657,0.089 -1.126,0.357c-0.468,0.266 -0.88,0.677 -1.236,1.231c-0.306,0.478 -0.52,1.203 -0.671,2.092c-0.32,0.155 -0.674,0.337 -1.102,0.582c-1.263,0.721 -3.168,2.165 -5.715,4.331c-2.545,2.165 -4.401,3.691 -5.56,4.581c-1.161,0.889 -2.195,1.631 -3.103,2.227c-0.908,0.597 -1.649,1.072 -2.219,1.428c-0.571,0.356 -0.482,0.006 0.267,-1.051c0.748,-1.056 1.709,-1.961 2.879,-2.714c1.169,-0.754 2.363,-1.58 3.58,-2.48c1.216,-0.898 2.28,-1.693 3.187,-2.384c0.908,-0.691 1.521,-1.438 1.841,-2.244c0.317,-0.805 0.428,-1.491 0.335,-2.055c-0.092,-0.565 -0.402,-0.753 -0.926,-0.565c-0.524,0.189 -1.193,0.498 -2.007,0.926c-0.815,0.429 -1.784,0.743 -2.907,0.942c-1.123,0.198 -1.956,0.182 -2.501,-0.048c-0.542,-0.23 -0.813,-0.491 -0.813,-0.784c-0,-0.293 0.314,-0.654 0.941,-1.083c0.627,-0.429 1.329,-0.952 2.106,-1.569c0.777,-0.617 1.347,-1.255 1.713,-1.914c0.364,-0.659 0.468,-1.208 0.308,-1.647c-0.158,-0.44 -0.482,-0.795 -0.967,-1.067c-0.206,-0.105 -0.459,-0.158 -0.759,-0.158c-0.374,0 -0.823,0.095 -1.349,0.283c-0.917,0.356 -1.922,0.9 -3.018,1.632c-1.095,0.732 -2.135,1.475 -3.118,2.227c-0.981,0.754 -1.718,1.345 -2.203,1.774c-0.129,0.114 -0.254,0.196 -0.38,0.293c-0.067,-0.017 -0.111,-0.08 -0.189,-0.074c-0.42,0.032 -0.845,0.074 -1.276,0.126c-0.431,0.053 -0.862,0.005 -1.293,-0.142c-0.431,-0.146 -0.738,-0.339 -0.927,-0.58c-0.186,-0.241 -0.157,-0.46 0.085,-0.658c0.243,-0.199 0.425,-0.544 0.549,-1.037c0.121,-0.491 0.149,-0.94 0.082,-1.349c-0.064,-0.407 -0.281,-0.726 -0.645,-0.956c-0.364,-0.23 -0.734,-0.377 -1.108,-0.44c-0.375,-0.063 -0.798,0.005 -1.265,0.204c-0.467,0.199 -0.908,0.513 -1.319,0.941c-0.412,0.43 -0.637,0.874 -0.676,1.334c-0.036,0.46 0.128,0.827 0.492,1.098c0.366,0.273 0.32,0.565 -0.139,0.879c-0.46,0.313 -0.955,0.606 -1.49,0.878c-0.534,0.272 -1.126,0.581 -1.782,0.926c-0.655,0.346 -1.26,0.565 -1.812,0.66c-0.553,0.093 -0.982,0.015 -1.291,-0.236c-0.31,-0.252 -0.445,-0.575 -0.407,-0.973c0.037,-0.398 0.649,-1.171 1.839,-2.322c1.188,-1.151 2.167,-2.003 2.933,-2.558c0.769,-0.554 1.564,-1.181 2.388,-1.882c0.823,-0.701 1.588,-1.328 2.29,-1.883c0.702,-0.554 1.37,-1.103 2.007,-1.647c0.637,-0.544 1.264,-1.203 1.881,-1.977c0.619,-0.775 1.022,-1.465 1.208,-2.071c-0.093,-0.607 -0.431,-0.974 -1.011,-1.099c-0.481,0.037 -1.062,0.266 -1.712,0.633c-0.115,-0.168 -0.306,-0.307 -0.635,-0.359c-0.856,-0.072 -1.475,-0.333 -1.666,-0.776c-0.283,-0.591 -0.046,-1.625 0.284,-2.623l1.192,-3.807c0.046,-0.221 0.237,-0.332 0.569,-0.332l7.418,0c0.332,0 0.523,0.149 0.57,0.332l1.142,3.732c0.188,0.666 0.761,2.254 0.428,2.883c-0.24,0.444 -0.952,0.591 -1.617,0.63c-0.474,0.036 -0.712,0.294 -0.712,0.59c-0,0.333 0.33,0.591 0.903,0.591l6.37,0c0.572,0 1.001,-0.258 1.001,-0.591c0.046,-0.296 -0.145,-0.554 -0.619,-0.665c-2.283,-0.48 -2.662,-1.589 -3.044,-2.919l-6.705,-21.839c-0.093,-0.297 -0.474,-0.519 -0.902,-0.519c-0.475,0 -0.81,0.222 -0.903,0.519l-6.752,21.248c-0.381,1.181 -0.763,3.102 -2.904,3.435c-0.474,0.111 -0.712,0.369 -0.712,0.666c0.047,0.368 0.429,0.665 1.047,0.665c0.761,-0.036 1.476,-0.036 2.616,-0.036c0.588,0 1.674,0.001 2.391,0.021c-0.408,0.335 -0.81,0.708 -1.204,1.142c-0.712,0.784 -1.554,1.835 -2.527,3.153c-0.975,1.318 -1.98,2.348 -3.02,3.091c-1.038,0.743 -2.138,1.72 -3.3,2.934c-1.159,1.214 -1.917,2.118 -2.274,2.714c-0.356,0.597 -0.542,1.293 -0.562,2.087c0.075,1.172 0.74,1.946 1.995,2.322l1.151,-0.031c0.916,-0.21 1.782,-0.476 2.597,-0.801c0.816,-0.323 1.625,-0.7 2.43,-1.129c0.805,-0.429 1.386,-0.79 1.74,-1.083c0.356,-0.293 0.69,-0.512 0.997,-0.658c0.31,-0.147 0.633,0.016 0.969,0.486c0.338,0.47 0.791,0.8 1.362,0.988c0.452,0.149 0.918,0.188 1.393,0.167c-0.06,0.139 -0.121,0.27 -0.179,0.429c2.077,-0.376 3.655,-1.109 4.732,-2.196c1.076,-1.088 2.053,-1.935 2.933,-2.542c0.88,-0.607 1.691,-1.103 2.43,-1.491c0.74,-0.386 1.09,-0.465 1.054,-0.235c-0.039,0.231 -0.197,0.498 -0.478,0.8c-0.281,0.304 -0.815,0.728 -1.6,1.271c-0.787,0.544 -1.452,1.109 -1.995,1.695c-0.542,0.586 -0.894,1.229 -1.054,1.93c-0.157,0.701 0.035,1.261 0.577,1.679c0.542,0.418 1.179,0.643 1.91,0.675c0.73,0.03 1.59,-0.032 2.583,-0.189c0.991,-0.157 1.782,-0.314 2.373,-0.471c0.589,-0.156 0.773,-0.005 0.548,0.455c-0.224,0.461 -0.75,1.005 -1.573,1.632c-0.824,0.627 -1.694,1.224 -2.612,1.788c-0.917,0.565 -1.811,1.214 -2.681,1.946c-0.872,0.732 -1.685,1.549 -2.444,2.447c-0.759,0.9 -1.361,1.905 -1.81,3.014c-0.45,1.108 -0.441,1.777 0.028,2.008c0.168,0.083 0.364,0.125 0.589,0.125c0.374,0 0.815,-0.115 1.319,-0.345c1.179,-0.858 2.575,-1.794 4.185,-2.809c1.611,-1.014 3.243,-2.249 4.9,-3.702c1.657,-1.454 3.361,-2.861 5.11,-4.221c1.752,-1.36 3.132,-2.395 4.144,-3.106c0.257,-0.181 0.433,-0.317 0.649,-0.475c0.081,0.353 0.192,0.667 0.335,0.942c0.293,0.554 0.857,1.029 1.698,1.425l0.97,0.029c1.13,-0.435 2.282,-0.935 3.451,-1.499c1.173,-0.564 2.508,-1.35 4.013,-2.36c1.502,-1.009 3.097,-2.444 4.784,-4.305c1.691,-1.86 3.023,-3.404 4,-4.631c0.976,-1.227 2.116,-2.593 3.418,-4.097c0.22,-0.255 0.407,-0.467 0.6,-0.687c0.382,0.07 0.773,0.119 1.165,0.167c-0.306,0.544 -0.726,1.316 -1.28,2.36c-0.591,1.109 -1.186,2.183 -1.784,3.222c-0.594,1.039 -1.172,2.157 -1.731,3.354c-0.557,1.198 -1.096,2.138 -1.611,2.82c-0.518,0.684 -0.917,1.278 -1.199,1.782c-0.282,0.505 -0.412,1.03 -0.389,1.574c0.024,0.543 0.193,0.955 0.509,1.232c0.315,0.277 0.754,0.272 1.322,-0.015c0.565,-0.287 1.282,-0.886 2.156,-1.796c0.873,-0.911 1.757,-1.712 2.654,-2.405c0.897,-0.693 1.674,-1.336 2.339,-1.93c0.661,-0.593 1.382,-1.207 2.156,-1.841c0.774,-0.633 0.714,-0.365 -0.183,0.802c-0.897,1.168 -1.615,2.128 -2.156,2.88c-0.542,0.752 -0.967,1.632 -1.272,2.642c-0.306,1.009 -0.359,1.692 -0.157,2.048c0.2,0.357 0.585,0.614 1.15,0.773c1.405,-0.1 2.511,-0.233 3.322,-0.401c0.807,-0.168 1.628,-0.406 2.458,-0.713c0.831,-0.306 1.532,-0.569 2.097,-0.786c0.487,-0.188 0.788,-0.536 0.963,-0.99c0.06,0.962 0.265,1.655 0.634,2.043c0.442,0.466 0.867,0.698 1.279,0.698c0.598,0 1.143,-0.089 1.635,-0.267c0.495,-0.178 1.003,-0.446 1.528,-0.802c0.525,-0.356 1.119,-0.643 1.781,-0.861c0.258,0.575 0.654,1.04 1.189,1.396c0.481,0.336 1.179,0.504 2.083,0.504c0.079,0 0.315,-0.009 0.701,-0.029c0.388,-0.02 0.9,-0.146 1.534,-0.378c0.635,-0.233 1.123,-0.535 1.466,-0.907c0.239,-0.256 0.366,-0.583 0.442,-0.942c0.966,-0.608 1.933,-1.487 2.899,-2.672c1.15,-1.405 1.877,-2.153 2.183,-2.241c0.305,-0.089 0.541,-0.025 0.704,0.192c0.16,0.219 0.083,0.535 -0.232,0.95c-0.316,0.416 -0.692,0.738 -1.127,0.965c-0.435,0.228 -0.847,0.53 -1.235,0.906c-0.389,0.377 -0.678,0.772 -0.874,1.187c-0.193,0.416 -0.252,0.841 -0.18,1.277c0.074,0.436 0.256,0.802 0.555,1.098c0.299,0.298 0.628,0.48 0.984,0.55c0.355,0.069 0.873,0.104 1.551,0.104c1.016,-0.159 1.987,-0.475 2.906,-0.95c0.572,-0.295 1.213,-0.642 1.886,-1.014c0.115,0.092 0.244,0.12 0.397,0.026c0.395,-0.242 0.88,-0.566 1.455,-0.972c0.574,-0.405 1.023,-0.846 1.352,-1.321c0.326,-0.475 0.439,-0.487 0.332,-0.037c-0.106,0.45 -0.149,0.903 -0.133,1.358c0.017,0.456 0.14,0.911 0.375,1.366c0.237,0.455 0.539,0.816 0.911,1.084c0.369,0.266 0.966,0.46 1.79,0.579l1.02,-0.06c0.92,-0.138 1.741,-0.307 2.459,-0.504c0.721,-0.199 1.272,-0.396 1.661,-0.594c0.388,-0.199 0.78,-0.441 1.176,-0.728c0.215,-0.156 0.333,-0.379 0.494,-0.573c0.093,0.382 0.207,0.717 0.359,0.945c0.226,0.336 0.545,0.628 0.957,0.875c0.412,0.248 1.206,0.441 2.385,0.579l0.655,0c1.082,-0.059 1.999,-0.228 2.75,-0.504c0.754,-0.278 1.379,-0.589 1.881,-0.936c0.498,-0.347 0.96,-0.885 1.381,-1.618c-0.145,-0.376 -0.335,-0.524 -0.571,-0.445" style="fill:#1d1d1e;fill-rule:nonzero;"/><path d="M85.753,91.045c-2.597,-0.059 -5.189,-3.422 -5.233,-3.484l0.116,-2.063c0.111,-1.911 2.559,-4.065 5.089,-4.005c0.497,0.01 0.833,0.123 0.833,0.123l0.895,0.462l0.763,0.227c0,0 2.184,1.442 2.128,3.943c-0.06,2.543 -2.216,4.851 -4.591,4.797m5.648,-6.561c0,0 -1.914,-4.358 -5.529,-4.441c-3.503,-0.08 -6.6,2.816 -6.675,6.141c-0.005,0.209 0.008,0.629 0.008,0.629l0.121,0.676l0.114,0.843l0.394,0.598c0,0 0.697,1.153 1.122,1.393l1.359,0.812l0.219,0.343l1.476,0.831l1.733,0.188l1.563,-0.09l0.918,-0.55l0.278,-0.307l0.893,-0.361l0.417,-0.557c0,0 1.733,-1.666 1.8,-4.523c0.006,-0.273 -0.141,-0.761 -0.141,-0.761l-0.07,-0.864Z" style="fill:#1d1d1e;fill-rule:nonzero;"/><path d="M85.862,85.369c-0.072,0.206 -0.503,0.343 -0.619,0.384l-0.423,-0.178l0.039,-0.735l0.412,-0.286l0.467,0.242c0.047,0.044 0.155,0.256 0.15,0.447c-0,0.041 -0,0.082 -0.026,0.126m1.127,1.202l-0.054,-0.57c0.046,-0.059 0.516,-0.892 0.521,-0.996c0.023,-1.072 -1.089,-1.983 -2.399,-2.014c-0.448,-0.01 -0.972,0.065 -1.207,0.5l-0.167,0.354l0.007,0.567l-0.247,0.962c-0,0 0.165,1.751 0.155,2.13c-0.011,0.459 -0.109,0.815 -0.109,0.815l0.575,0.563l0.524,-0.222c-0,0 0.616,-1.184 0.887,-1.176c0.341,0.007 0.892,0.608 1.094,0.717c0.603,0.289 0.913,0.526 1.186,0.531c0.315,0.008 0.603,-0.784 0.603,-0.784l-0.747,-0.877l-0.622,-0.5Z" style="fill:#1d1d1e;fill-rule:nonzero;"/></g></g></svg>