<?xml version="1.0" encoding="UTF-8" standalone="no"?><!DOCTYPE svg PUBLIC "-//W3C//DTD SVG 1.1//EN" "http://www.w3.org/Graphics/SVG/1.1/DTD/svg11.dtd"><svg width="100%" height="100%" viewBox="0 0 710 73" version="1.1" xmlns="http://www.w3.org/2000/svg" xmlns:xlink="http://www.w3.org/1999/xlink" xml:space="preserve" xmlns:serif="http://www.serif.com/" style="fill-rule:evenodd;clip-rule:evenodd;stroke-linejoin:round;stroke-miterlimit:2;"><rect id="Page-1" serif:id="Page 1" x="0" y="0" width="709.203" height="72.711" style="fill:none;"/><clipPath id="_clip1"><rect x="0" y="0" width="709.203" height="72.711"/></clipPath><g clip-path="url(#_clip1)"><g id="Layer-1" serif:id="Layer 1"><path d="M44.295,29.054c-10.876,-1.622 -16.313,-3.526 -16.313,-5.711l-0,-0.149c0.184,-2.218 1.935,-3.328 5.253,-3.328c3.429,0 5.143,1.921 5.143,5.761c-0,0.298 -0.019,0.614 -0.056,0.944l-0,0.149l0.443,-0.149l27.65,0c-0,-17.714 -11.06,-26.571 -33.18,-26.571c-14.378,0 -23.945,3.311 -28.7,9.933c-3.024,4.205 -4.535,8.526 -4.535,12.963c-0,2.55 0.498,5.132 1.493,7.747c2.728,7.219 9.622,11.656 20.682,13.311c11.06,1.656 16.59,3.526 16.59,5.612c-0,2.086 -1.844,3.129 -5.53,3.129c-3.724,0 -5.585,-1.755 -5.585,-5.265c-0,-0.33 0.018,-0.662 0.055,-0.993l-27.65,0l-0,0.845c-0,16.854 11.06,25.279 33.18,25.279c14.746,0 24.442,-3.31 29.088,-9.932c2.875,-4.139 4.313,-8.361 4.313,-12.665c-0,-2.583 -0.517,-5.199 -1.549,-7.848c-2.802,-7.052 -9.732,-11.406 -20.792,-13.062" style="fill:#090a0a;fill-rule:nonzero;"/><path d="M111.787,26.571l-5.53,0l0,-4.967l5.53,0c3.686,0 5.53,0.828 5.53,2.484c0,1.655 -1.844,2.483 -5.53,2.483m5.53,-24.833l-44.24,0l0,69.532l33.18,0l0,-24.833l11.06,0c18.432,0 27.65,-7.466 27.65,-22.399c0,-14.866 -9.218,-22.3 -27.65,-22.3" style="fill:#090a0a;fill-rule:nonzero;"/><rect x="151.629" y="1.739" width="33.18" height="69.532" style="fill:#090a0a;"/><path d="M224.651,0c-22.12,0 -33.18,10.513 -33.18,31.538l-0,9.933c-0,20.827 11.06,31.24 33.18,31.24c22.12,0 33.18,-10.413 33.18,-31.24l-0,-2.583l-30.581,-0l-0,2.583c-0,4.271 -0.867,6.407 -2.599,6.407c-1.659,-0 -2.488,-2.136 -2.488,-6.407l-0,-9.933c-0,-4.47 0.829,-6.705 2.488,-6.705c1.732,-0 2.599,2.235 2.599,6.705l-0,0.149l0.111,-0l-0,2.433l30.47,-0l-0,-2.582c-0,-21.025 -11.06,-31.538 -33.18,-31.538" style="fill:#090a0a;fill-rule:nonzero;"/><path d="M264.494,71.27l66.359,0l-0,-19.866l-33.179,0l-0,-4.967l33.179,0l-0,-19.866l-33.179,0l-0,-4.967l33.179,0l-0,-19.866l-66.359,0l-0,69.532Z" style="fill:#090a0a;fill-rule:nonzero;"/><path d="M445.897,26.571l-5.53,0l0,-4.967l5.53,0c3.686,0 5.529,0.828 5.529,2.484c0,1.655 -1.843,2.483 -5.529,2.483m0,24.833l-5.53,0l0,-4.967l5.53,0c3.686,0 5.529,0.828 5.529,2.484c0,1.656 -1.843,2.483 -5.529,2.483m33.18,-27.366c0,-14.866 -9.217,-22.3 -27.651,-22.3l-44.239,0l0,69.532l44.239,0c18.434,0 27.651,-7.432 27.651,-22.3c0,-4.999 -1.844,-9.155 -5.531,-12.466c3.687,-3.31 5.531,-7.466 5.531,-12.466" style="fill:#090a0a;fill-rule:nonzero;"/><path d="M516.43,31.538c0,-4.47 0.829,-6.705 2.488,-6.705c1.733,-0 2.6,2.235 2.6,6.705l-5.088,-0Zm2.488,-31.538c-22.12,-0 -33.179,10.513 -33.179,31.538l0,39.733l30.691,-0l0,-19.866l5.088,-0l0,19.866l30.58,-0l0,-39.733c0,-21.025 -11.06,-31.538 -33.18,-31.538" style="fill:#090a0a;fill-rule:nonzero;"/><path d="M597.471,26.571l-5.53,-24.833l-33.18,0l0,69.532l33.18,0l0,-24.833l5.53,24.833l33.18,0l0,-69.532l-33.18,0l0,24.833Z" style="fill:#090a0a;fill-rule:nonzero;"/><path d="M709.203,1.738l-33.18,0l-5.53,14.899l-0,-14.899l-33.18,0l-0,69.532l33.18,0l-0,-14.899l5.53,14.899l33.18,0l-16.59,-34.766l16.59,-34.766Z" style="fill:#090a0a;fill-rule:nonzero;"/><path d="M369.355,36.242l0.04,-0.761l0.4,-0.276l0.494,0.255c0.044,0.06 0.141,0.27 0.137,0.448c-0.001,0.044 -0.002,0.072 -0.025,0.117c-0.028,0.083 -0.161,0.215 -0.646,0.385l-0.4,-0.168Zm-1.765,2.465c-0.011,0.548 -0.129,0.978 -0.13,0.982l-0.02,0.072l0.824,0.802l0.767,-0.321l0.021,-0.04c0.381,-0.733 0.841,-1.384 0.984,-1.392c0.242,0.005 0.655,0.357 0.927,0.59c0.155,0.132 0.277,0.236 0.373,0.288c0.25,0.119 0.46,0.232 0.64,0.329c0.364,0.195 0.628,0.336 0.88,0.342l0.008,0c0.454,0 0.798,-0.878 0.862,-1.054l0.025,-0.069l-0.991,-1.161l-0.727,-0.583l-0.06,-0.613c0.127,-0.214 0.637,-1.088 0.641,-1.26c0.031,-1.379 -1.383,-2.578 -3.089,-2.617c-0.839,-0.011 -1.352,0.205 -1.613,0.689l-0.217,0.464l0.011,0.715l-0.303,1.175l-0.006,0.021l0.003,0.022c0.002,0.021 0.201,2.163 0.19,2.619" style="fill:#090a0a;fill-rule:nonzero;"/><path d="M370.347,31.396c0.573,0.013 0.973,0.14 0.978,0.14l1.127,0.581l0.926,0.277c0.211,0.146 2.628,1.886 2.562,4.759c-0.033,1.478 -0.664,2.969 -1.73,4.092c-1.044,1.1 -2.396,1.724 -3.723,1.724c-0.033,0 -0.065,0 -0.097,-0.001c-3.021,-0.069 -6.055,-3.843 -6.355,-4.228l0.141,-2.502c0.13,-2.24 2.991,-4.903 6.171,-4.842m7.24,4.636l-0.088,-1.069l-0.01,-0.04c-0.006,-0.014 -0.613,-1.381 -1.762,-2.74c-1.529,-1.808 -3.325,-2.787 -5.193,-2.83c-0.057,-0.001 -0.115,-0.002 -0.173,-0.002c-2.035,0 -4.082,0.816 -5.638,2.254c-1.595,1.474 -2.535,3.466 -2.581,5.467c-0.006,0.262 0.01,0.788 0.012,0.806l0.148,0.831l0.144,1.046l0.504,0.787c0.036,0.059 0.885,1.458 1.432,1.767l1.656,0.987l0.255,0.398l1.868,1.073l2.219,0.247l1.935,-0.111l1.192,-0.694l0.353,-0.386l1.107,-0.446l0.536,-0.711c0.143,-0.143 2.178,-2.236 2.257,-5.679c0.008,-0.354 -0.172,-0.955 -0.174,-0.955" style="fill:#090a0a;fill-rule:nonzero;"/></g></g></svg>